<svg height="512pt" viewBox="0 -28 512 512" width="512pt" xmlns="http://www.w3.org/2000/svg"><path d="m372.222656 271.027344h-105.328125l30.28125-265.90625c.25-2.207032 2.117188-3.871094 4.335938-3.871094h36.089843c2.21875 0 4.085938 1.664062 4.335938 3.871094zm0 0" fill="#2dd2e3"/><path d="m483.660156 271.113281h-105.332031l30.285156-265.902343c.25-2.207032 2.117188-3.875 4.335938-3.875h36.089843c2.21875 0 4.085938 1.667968 4.335938 3.875zm0 0" fill="#2dd2e3"/><path d="m453.378906 5.207031c-.253906-2.203125-2.121094-3.871093-4.339844-3.871093h-31.261718c2.21875 0 4.085937 1.667968 4.339844 3.871093l30.28125 265.902344h31.261718zm0 0" fill="#00bfd8"/><path d="m267.929688 221.585938-114.878907-105.03125c-5.84375-5.34375-15.253906-1.195313-15.253906 6.722656v92.785156c0 3.050781-2.472656 5.523438-5.523437 5.523438-1.378907 0-2.707032-.515626-3.726563-1.445313l-113.292969-103.585937c-5.84375-5.339844-15.253906-1.195313-15.253906 6.722656v320.882812c0 6.152344 4.988281 11.144532 11.144531 11.144532h489.710938c6.15625 0 11.144531-4.992188 11.144531-11.144532v-216.152344c0-3.546874-2.875-6.421874-6.421875-6.421874zm0 0" fill="#8ebac5"/><path d="m505.578125 221.585938h-30.917969c3.546875 0 6.421875 2.875 6.421875 6.421874v216.152344c0 6.152344-4.988281 11.144532-11.144531 11.144532h30.917969c6.15625 0 11.144531-4.992188 11.144531-11.144532v-216.152344c0-3.546874-2.875-6.421874-6.421875-6.421874zm0 0" fill="#7ca1b1"/><g fill="#fff156"><path d="m96.761719 389.269531h-42.851563c-4.65625 0-8.433594-3.773437-8.433594-8.429687v-62.351563c0-4.660156 3.777344-8.433593 8.433594-8.433593h42.851563c4.65625 0 8.433593 3.773437 8.433593 8.433593v62.351563c-.003906 4.65625-3.777343 8.429687-8.433593 8.429687zm0 0"/><path d="m200.175781 389.269531h-42.851562c-4.660157 0-8.433594-3.773437-8.433594-8.429687v-62.351563c0-4.660156 3.773437-8.433593 8.433594-8.433593h42.851562c4.65625 0 8.433594 3.773437 8.433594 8.433593v62.351563c0 4.65625-3.777344 8.429687-8.433594 8.429687zm0 0"/><path d="m303.589844 389.269531h-42.851563c-4.660156 0-8.433593-3.773437-8.433593-8.429687v-62.351563c0-4.660156 3.773437-8.433593 8.433593-8.433593h42.851563c4.65625 0 8.433594 3.773437 8.433594 8.433593v62.351563c0 4.65625-3.777344 8.429687-8.433594 8.429687zm0 0"/></g><path d="m451.746094 455.304688h-93.835938v-140.226563c0-2.773437 2.25-5.023437 5.023438-5.023437h83.792968c2.773438 0 5.019532 2.25 5.019532 5.023437zm0 0" fill="#ff9838"/><path d="m351.328125 37.941406h-63.542969c-3.875 0-7.015625-3.144531-7.015625-7.019531v-23.902344c0-3.875 3.140625-7.019531 7.015625-7.019531h63.542969c3.875 0 7.019531 3.140625 7.019531 7.019531v23.902344c0 3.875-3.144531 7.019531-7.019531 7.019531zm0 0" fill="#00bfd8"/><path d="m462.765625 37.941406h-63.542969c-3.875 0-7.019531-3.144531-7.019531-7.019531v-23.902344c0-3.875 3.144531-7.019531 7.019531-7.019531h63.542969c3.875 0 7.015625 3.140625 7.015625 7.019531v23.902344c.003906 3.875-3.140625 7.019531-7.015625 7.019531zm0 0" fill="#00bfd8"/></svg>