<?xml version="1.0" encoding="utf-8"?>
<!-- Generator: Adobe Illustrator 24.0.0, SVG Export Plug-In . SVG Version: 6.00 Build 0)  -->
<svg version="1.1" id="Capa_1" xmlns="http://www.w3.org/2000/svg" xmlns:xlink="http://www.w3.org/1999/xlink" x="0px" y="0px"
	 viewBox="0 0 820 512" style="enable-background:new 0 0 820 512;" xml:space="preserve">
<style type="text/css">
	.st0{fill:#2DD2E3;}
	.st1{fill:#00BFD8;}
	.st2{fill:#537983;}
	.st3{fill:#E61F2D;}
	.st4{fill:#FF4755;}
	.st5{fill:#7CA1B1;}
	.st6{fill:#DEECF1;}
	.st7{fill:#FF9838;}
	.st8{fill:#FF8709;}
	.st9{fill:#384949;}
	.st10{fill:#8EBAC5;}
	.st11{fill:#EAB765;}
	.st12{fill:#D9AB5E;}
	.st13{fill:#FFF156;}
	.st14{fill:#FFF3DE;}
</style>
<g>
	<path class="st0" d="M220.1,296.2v70.6h17v-70.6c0-1.5-0.2-3-0.6-4.4l-26.6-98.9c-6.7-24.7-27.3-42.8-52.6-46.1c-0.1,0-0.2,0-0.4,0
		l-83.7-9.1c-1.5-0.2-3-0.2-4.5-0.2c-19.8,0-36,16.2-36,36v124.3h17V173.3c0-11.4,10.1-20.3,21.4-18.8l83.8,9.1
		c18.5,2.4,33.5,15.7,38.4,33.7L220.1,296.2z"/>
	<path class="st1" d="M236.6,291.8L210,192.9c-6.7-24.7-27.3-42.8-52.6-46.1c-0.1,0-4.1-0.5-10.5-1.1c20.8,8.1,40.1,27.1,45.6,47.1
		l26.6,98.9c0.2,0.7,0.4,1.5,0.5,2.2l0.6,2.2v70.6h17v-70.6C237.1,294.7,236.9,293.2,236.6,291.8z"/>
	<path class="st2" d="M255.5,375.5h-18.3v-180c0-2.4,1.9-4.4,4.4-4.4h9.6c2.4,0,4.4,1.9,4.4,4.4V375.5z"/>
	<path class="st3" d="M95.4,306.6H67.4v-58c0-7.7,6.2-14,14-14s14,6.2,14,14V306.6z"/>
	<path class="st4" d="M148.4,354.2H50.2v-54.7h88.1c5.6,0,10.1,4.5,10.1,10.1V354.2z"/>
	<path class="st3" d="M138.3,299.5H121c5.6,0,10.1,4.5,10.1,10.1v44.6h17.3v-44.6C148.4,304,143.9,299.5,138.3,299.5z"/>
	<path class="st5" d="M285.2,379.9H240c-2.4,0-4.4-1.9-4.4-4.4s1.9-4.4,4.4-4.4h45.2c2.4,0,4.4,1.9,4.4,4.4S287.6,379.9,285.2,379.9
		z"/>
	<path class="st6" d="M210.9,342.4c3.2,0,6.3,0.5,9.2,1.3v-28.8l-31.8-35l-12.3,7L196,346C200.4,343.7,205.5,342.4,210.9,342.4z"/>
	<path class="st7" d="M220.1,370.8v-32.7H115.3c-8,0-15.6-4-20-10.6l-27.8-40.7H23.9C10.7,286.8,0,297.5,0,310.8v60.1h220.1V370.8z"
		/>
	<path class="st8" d="M161.9,370.8h58.2v-32.7h-42.8C168.4,346.4,162.7,357.9,161.9,370.8z"/>
	<path class="st9" d="M242.5,374c0,17.5-14.2,31.6-31.6,31.6c-17.5,0-31.6-14.2-31.6-31.6c0-17.5,14.2-31.6,31.6-31.6
		S242.5,356.5,242.5,374z"/>
	<path class="st6" d="M223.2,374c0,6.8-5.5,12.3-12.3,12.3s-12.3-5.5-12.3-12.3s5.5-12.3,12.3-12.3
		C217.6,361.7,223.2,367.2,223.2,374z"/>
	<path class="st9" d="M77.6,370.8c0,21.9-17.7,39.6-39.6,39.6s-39.6-17.7-39.6-39.6s17.7-39.6,39.6-39.6S77.6,348.9,77.6,370.8z"/>
	<path class="st6" d="M52.9,370.8c0,8.1-6.7,14.8-14.8,14.8s-14.8-6.7-14.8-14.8c0-8.1,6.7-14.8,14.8-14.8
		C46.3,356,52.9,362.7,52.9,370.8z"/>
	<path class="st10" d="M167,296.6c-1.5,0-2.9-0.7-3.8-2.2c-1.2-2.1-0.5-4.7,1.6-6l30.7-17.7c2.1-1.2,4.7-0.5,6,1.6
		c1.2,2.1,0.5,4.7-1.6,6L169.1,296C168.4,296.4,167.7,296.6,167,296.6z"/>
</g>
<g>
	<path class="st4" d="M629.5,200.1h94.2c4.6,0,9,2.4,11.5,6.2l38.5,60.1c1.9,3,5,5.1,8.5,5.9l27,7.4c6.2,1.4,10.7,6.9,10.7,13.3
		v92.1c0,7.5-6.1,13.6-13.6,13.6H629.5V200.1z"/>
	<path class="st3" d="M809.2,279.8l-27-7.4c-3.5-0.8-6.6-2.9-8.5-5.9l-38.5-60.1c-2.6-3.8-6.9-6.2-11.5-6.2h-38.5l57.4,87.8
		c1.9,3,5,5.1,8.5,5.9l27,7.4c6.2,1.4,10.7,6.9,10.7,13.3v84.5h17.6c7.5,0,13.6-6.1,13.6-13.6v-92.1
		C820,286.6,815.5,281,809.2,279.8z"/>
	<path class="st10" d="M308,385c0,7.7,6.2,13.8,13.8,13.8h317.5v-74.5H308V385z"/>
	<path class="st5" d="M608.5,324.2h30.9v74.5h-30.9V324.2z"/>
	<path class="st11" d="M639.4,333.5H308V75.8c0-5.1,4.2-9.3,9.3-9.3h312.9c5.1,0,9.3,4.2,9.3,9.3V333.5L639.4,333.5z"/>
	<path class="st12" d="M630.1,66.5h-30.9c5.1,0,9.3,4.2,9.3,9.3v257.7h30.9V75.8C639.4,70.7,635.2,66.5,630.1,66.5z"/>
	<path class="st0" d="M747.2,278l-26.4-43.5c-1.1-1.9-3.4-3.2-5.6-3.2h-46.4c-3.7,0-6.6,2.9-6.6,6.6v43.5c0,3.7,2.9,6.6,6.6,6.6
		h72.8C746.7,287.9,749.9,282.3,747.2,278z"/>
	<path class="st13" d="M820,385.2V365h-25.8c-7.7,0-14.1,6.2-14.1,14.1v19.7h26.2C813.9,398.8,820,392.7,820,385.2z"/>
	<path class="st9" d="M397.4,445.5c-25.6,0-46.5-21-46.5-46.5c0-25.6,21-46.5,46.5-46.5s46.5,21,46.5,46.5
		C443.9,424.5,423.1,445.5,397.4,445.5z"/>
	<path class="st6" d="M397.4,416.5c-9.8,0-17.8-8-17.8-17.8s8-17.8,17.8-17.8c9.8,0,17.8,8,17.8,17.8S407.1,416.5,397.4,416.5z"/>
	<path class="st9" d="M709.6,445.5c-25.6,0-46.5-21-46.5-46.5c0-25.6,21-46.5,46.5-46.5c25.6,0,46.5,21,46.5,46.5
		C756.1,424.5,735.4,445.5,709.6,445.5z"/>
	<path class="st6" d="M709.6,416.5c-9.8,0-17.8-8-17.8-17.8s8-17.8,17.8-17.8s17.8,8,17.8,17.8S719.4,416.5,709.6,416.5z"/>
	<path class="st8" d="M434.3,189.1l31-24.5c2.9-2.2,6.9-2.2,9.8,0l31,24.5c5.1,4,12.6,0.5,12.6-6.1V66.5h-97.1V183
		C421.7,189.5,429.2,193.2,434.3,189.1z"/>
	<g>
		<path class="st14" d="M597.6,264.1h-59.3c-4.3,0-7.7-3.5-7.7-7.7c0-4.2,3.5-7.7,7.7-7.7h59.3c4.3,0,7.7,3.5,7.7,7.7
			C605.3,260.6,602,264.1,597.6,264.1z"/>
		<path class="st14" d="M597.6,301.7h-59.3c-4.3,0-7.7-3.5-7.7-7.7c0-4.3,3.5-7.7,7.7-7.7h59.3c4.3,0,7.7,3.5,7.7,7.7
			S602,301.7,597.6,301.7z"/>
	</g>
</g>
</svg>
