<svg height="512pt" viewBox="0 -11 512 512" width="512pt" xmlns="http://www.w3.org/2000/svg"><path d="m469.898438 491.164062h-427.796876c-6.671874 0-12.082031-5.40625-12.082031-12.082031v-370.238281l225.980469-105.410156 225.980469 105.410156v370.238281c0 6.671875-5.410157 12.082031-12.082031 12.082031zm0 0" fill="#6bdae8"/><path d="m256 3.433594-75.191406 35.074218 261.082031 121.921876c5.394531 2.519531 8.839844 7.933593 8.839844 13.882812v316.851562h19.167969c6.671874 0 12.082031-5.40625 12.082031-12.082031v-370.238281zm0 0" fill="#00bfd8"/><path d="m253.132812.636719-249.214843 116.246093c-2.390625 1.113282-3.917969 3.511719-3.917969 6.152344v34.1875c0 4.964844 5.15625 8.25 9.65625 6.152344l243.476562-113.570312c1.816407-.847657 3.917969-.847657 5.734376 0l243.476562 113.570312c4.5 2.097656 9.65625-1.1875 9.65625-6.152344v-34.1875c0-2.636718-1.527344-5.039062-3.917969-6.152344l-249.214843-116.246093c-1.816407-.847657-3.917969-.847657-5.734376 0zm0 0" fill="#ff4755"/><path d="m411.292969 186.757812h-310.585938c-6.898437 0-12.488281 5.59375-12.488281 12.488282v291.917968h335.5625v-291.914062c0-6.898438-5.59375-12.492188-12.488281-12.492188zm0 0" fill="#deecf1"/><path d="m88.21875 224.667969h335.5625v-25.417969c0-6.898438-5.59375-12.492188-12.488281-12.492188h-310.585938c-6.898437 0-12.488281 5.59375-12.488281 12.492188zm0 0" fill="#8ebac5"/><path d="m88.21875 224.644531h335.5625v37.910157h-335.5625zm0 0" fill="#7ca1b1"/><path d="m88.21875 394.613281h96.554688v96.550781h-96.554688zm0 0" fill="#d9ab5e"/><path d="m118.601562 394.613281v37.847657c0 2.289062 2.457032 3.742187 4.460938 2.632812l11.976562-6.617188c.90625-.5 2.003907-.5 2.910157 0l11.980469 6.617188c2.003906 1.109375 4.457031-.339844 4.457031-2.632812v-37.847657zm0 0" fill="#ff8709"/><path d="m281.324219 491.164062h-96.550781v-96.550781h88.574218c4.40625 0 7.976563 3.570313 7.976563 7.976563zm0 0" fill="#eab765"/><path d="m215.152344 394.613281v37.847657c0 2.289062 2.457031 3.742187 4.460937 2.632812l11.980469-6.617188c.90625-.5 2.003906-.5 2.90625 0l11.980469 6.617188c2.003906 1.109375 4.460937-.339844 4.460937-2.632812v-37.847657zm0 0" fill="#ff8709"/><path d="m184.773438 394.613281h-96.554688v-96.554687h88.578125c4.402344 0 7.976563 3.570312 7.976563 7.976562zm0 0" fill="#eab765"/><path d="m118.601562 298.058594v37.851562c0 2.289063 2.457032 3.738282 4.460938 2.632813l11.976562-6.621094c.90625-.5 2.003907-.5 2.910157 0l11.980469 6.621094c2.003906 1.105469 4.457031-.34375 4.457031-2.632813v-37.851562zm0 0" fill="#ff8709"/></svg>