<svg height="512pt" viewBox="0 -15 512 511" width="512pt" xmlns="http://www.w3.org/2000/svg"><path d="m389.867188 279.808594v124.21875h29.945312v-124.21875c0-2.632813-.347656-5.253906-1.03125-7.796875l-46.890625-173.902344c-11.691406-43.359375-48.011719-75.164063-92.539063-81.023437-.21875-.027344-.445312-.054688-.667968-.082032l-147.15625-16.007812c-2.628906-.328125-5.296875-.496094-7.929688-.496094-34.871094 0-63.242187 28.398438-63.242187 63.308594v218.882812h29.949219v-218.886718c0-20.148438 17.726562-35.699219 37.707031-33.066407l147.433593 16.039063c32.386719 4.261718 59.03125 27.589844 67.535157 59.128906zm0 0" fill="#2dd2e3"/><path d="m418.78125 272.011719-46.890625-173.902344c-11.691406-43.359375-48.011719-75.164063-92.539063-81.023437-.117187-.015626-7.246093-.792969-18.304687-1.996094 36.445313 14.214844 70.554687 47.585937 80.109375 83.019531l46.890625 173.902344c.347656 1.296875.605469 2.613281.78125 3.941406l1.039063 3.855469v124.21875h29.945312v-124.21875c0-2.632813-.347656-5.253906-1.03125-7.796875zm0 0" fill="#00bfd8"/><path d="m452.179688 419.445312h-32.367188v-316.65625c0-4.285156 3.476562-7.765624 7.765625-7.765624h16.835937c4.289063 0 7.765626 3.476562 7.765626 7.765624zm0 0" fill="#537983"/><path d="m170.515625 298.109375h-49.058594v-101.914063c0-13.546874 10.980469-24.527343 24.527344-24.527343s24.53125 10.980469 24.53125 24.527343zm0 0" fill="#e61f2d"/><path d="m263.703125 381.664062h-172.65625v-96.125h154.988281c9.757813 0 17.667969 7.910157 17.667969 17.667969zm0 0" fill="#ff4755"/><path d="m246.035156 285.539062h-30.394531c9.757813 0 17.667969 7.910157 17.667969 17.667969v78.457031h30.394531v-78.457031c0-9.757812-7.910156-17.667969-17.667969-17.667969zm0 0" fill="#e61f2d"/><path d="m504.386719 427.054688h-79.550781c-4.203126 0-7.613282-3.40625-7.613282-7.613282 0-4.203125 3.410156-7.609375 7.613282-7.609375h79.550781c4.207031 0 7.613281 3.40625 7.613281 7.609375 0 4.207032-3.40625 7.613282-7.613281 7.613282zm0 0" fill="#7ca1b1"/><path d="m373.699219 360.988281c5.625 0 11.050781.84375 16.167969 2.394531v-50.640624l-56.015626-61.511719-21.523437 12.425781 35.039063 103.953125c7.839843-4.21875 16.804687-6.621094 26.332031-6.621094zm0 0" fill="#deecf1"/><path d="m389.867188 411.097656v-57.546875h-184.320313c-14.078125 0-27.253906-6.949219-35.203125-18.570312l-48.980469-71.597657h-76.472656c-23.195313 0-42 18.804688-42 42v105.714844zm0 0" fill="#ff9838"/><path d="m287.40625 411.097656h102.460938v-57.546875h-75.3125c-15.566407 14.601563-25.71875 34.882813-27.148438 57.546875zm0 0" fill="#ff8709"/><path d="m429.335938 416.625c0 30.722656-24.910157 55.632812-55.636719 55.632812-30.722657 0-55.632813-24.910156-55.632813-55.632812 0-30.726562 24.910156-55.632812 55.632813-55.632812 30.726562 0 55.636719 24.90625 55.636719 55.632812zm0 0" fill="#384949"/><path d="m395.285156 416.625c0 11.917969-9.664062 21.582031-21.585937 21.582031-11.917969 0-21.582031-9.664062-21.582031-21.582031 0-11.921875 9.664062-21.585938 21.582031-21.585938 11.921875 0 21.585937 9.664063 21.585937 21.585938zm0 0" fill="#deecf1"/><path d="m139.371094 411.097656c0 38.484375-31.199219 69.683594-69.6875 69.683594-38.484375 0-69.683594-31.199219-69.683594-69.683594s31.199219-69.683594 69.683594-69.683594c38.488281 0 69.6875 31.199219 69.6875 69.683594zm0 0" fill="#384949"/><path d="m95.773438 411.097656c0 14.40625-11.679688 26.085938-26.089844 26.085938-14.40625 0-26.085938-11.679688-26.085938-26.085938s11.679688-26.085937 26.085938-26.085937c14.410156 0 26.089844 11.679687 26.089844 26.085937zm0 0" fill="#deecf1"/><path d="m296.332031 280.507812c-2.628906 0-5.1875-1.363281-6.597656-3.804687-2.101563-3.640625-.855469-8.296875 2.785156-10.398437l54.0625-31.214844c3.640625-2.101563 8.296875-.855469 10.398438 2.785156 2.101562 3.640625.855469 8.296875-2.785157 10.398438l-54.066406 31.214843c-1.195312.691407-2.507812 1.019531-3.796875 1.019531zm0 0" fill="#8ebac5"/></svg>