<?xml version="1.0" encoding="utf-8"?>
<!-- Generator: Adobe Illustrator 24.0.0, SVG Export Plug-In . SVG Version: 6.00 Build 0)  -->
<svg version="1.1" id="Capa_1" xmlns="http://www.w3.org/2000/svg" xmlns:xlink="http://www.w3.org/1999/xlink" x="0px" y="0px"
	 viewBox="0 0 512 512" style="enable-background:new 0 0 512 512;" xml:space="preserve">
<style type="text/css">
	.st0{fill:#666666;}
	.st1{fill:#F74B68;}
	.st2{fill:#DD3A5E;}
	.st3{fill:#F2F2F2;}
	.st4{fill:#CCCCCC;}
	.st5{fill:#82BFB8;}
	.st6{fill:#A5E5DF;}
	.st7{fill:#428FCE;}
	.st8{fill:#3180B5;}
	.st9{fill:#FBB540;}
	.st10{fill:#DA922A;}
	.st11{fill:#A83B32;}
	.st12{fill:#EBEBEB;}
	.st13{fill:#99362E;}
	.st14{fill:#5B3726;}
	.st15{fill:#FBD699;}
	.st16{fill:#E08122;}
	.st17{fill:#FD9226;}
	.st18{fill:#E0E0E0;}
	.st19{fill:#D9D9D9;}
	.st20{fill:#EA9D2D;}
	.st21{fill:#8DC79D;}
	.st22{fill:#55785F;}
	.st23{fill:#744630;}
	.st24{fill:#CDCDCD;}
	.st25{fill:#C7463B;}
	.st26{fill:#6CBAE5;}
	.st27{fill:#428DC5;}
	.st28{fill:#85BC94;}
	.st29{fill:#4799CF;}
	.st30{fill:#B2B1B4;}
	.st31{fill:#959494;}
	.st32{fill:#808080;}
	.st33{fill:#EB5849;}
</style>
<g id="flat">
	<g>
		<path class="st0" d="M46.2,76.8c-2.3,0-4.2-1.9-4.2-4.2V37.8c0-2.3,1.9-4.2,4.2-4.2s4.2,1.9,4.2,4.2v34.8
			C50.5,74.9,48.6,76.8,46.2,76.8z"/>
		<rect x="33" y="114.4" class="st1" width="26.6" height="268.8"/>
		<rect x="33" y="114.4" class="st2" width="13.3" height="268.8"/>
		<rect x="33" y="202.2" class="st3" width="26.6" height="85.1"/>
		<rect x="33" y="202.2" class="st4" width="13.3" height="85.1"/>
		<polygon class="st5" points="77.4,72.6 70,120.1 22.5,120.1 15,72.6 		"/>
		<polygon class="st6" points="77.4,72.6 70,120.1 37.3,120.1 36.1,72.6 		"/>
		<g>
			<path class="st7" d="M77.4,78.9H15c-3.5,0-6.3-2.8-6.3-6.3s2.8-6.3,6.3-6.3h62.4c3.5,0,6.3,2.8,6.3,6.3S80.9,78.9,77.4,78.9z"/>
			<path class="st7" d="M70,126.4H22.5c-3.5,0-6.3-2.8-6.3-6.3s2.8-6.3,6.3-6.3H70c3.5,0,6.3,2.8,6.3,6.3
				C76.3,123.5,73.5,126.4,70,126.4z"/>
		</g>
		<g>
			<path class="st8" d="M34.2,120.1c0-3.5,2.8-6.3,6.3-6.3h-18c-3.5,0-6.3,2.8-6.3,6.3s2.8,6.3,6.3,6.3h18
				C37,126.4,34.2,123.5,34.2,120.1z"/>
			<path class="st8" d="M26.7,72.6c0-3.5,2.8-6.3,6.3-6.3H15c-3.5,0-6.3,2.8-6.3,6.3s2.8,6.3,6.3,6.3h18
				C29.5,78.9,26.7,76.1,26.7,72.6z"/>
		</g>
	</g>
	<path class="st9" d="M171.9,392.2H81.2V248.6l90.7-7.6V392.2z"/>
	<path class="st10" d="M171.9,241h30.2v151.1h-30.2V241z"/>
	<path class="st11" d="M171.9,248.6h52.9l-45.3-37.8H119v15.1L171.9,248.6z"/>
	<g>
		<path class="st12" d="M103.9,271.3H119v15.1h-15.1V271.3z"/>
		<path class="st12" d="M134.1,271.3h15.1v15.1h-15.1V271.3z"/>
		<path class="st12" d="M134.1,301.5h15.1v15.1h-15.1V301.5z"/>
		<path class="st12" d="M103.9,301.5H119v15.1h-15.1V301.5z"/>
	</g>
	<path class="st13" d="M141.7,354.4v37.8h-30.2v-37.8c0-8.3,6.8-15.1,15.1-15.1S141.7,346.1,141.7,354.4z"/>
	<path class="st11" d="M134.1,354.4v37.8h-22.7v-37.8c0-6.9,4.7-12.9,11.3-14.6C129.5,341.5,134.1,347.5,134.1,354.4z"/>
	<path class="st14" d="M0.5,383.2H512v107.7H0.5V383.2z"/>
	<path class="st15" d="M368.4,384.6H202.2V233.5l83.1-45.3l83.1,45.3V384.6z"/>
	<path class="st16" d="M315.5,339.3v45.3H255v-45.3c0-15.2,11.3-28.1,26.5-30c1.3-0.2,2.5-0.2,3.8-0.2
		C302,309.1,315.5,322.6,315.5,339.3L315.5,339.3z"/>
	<path class="st17" d="M308,339.3v45.3h-52.9v-45.3c0-15.2,11.3-28.1,26.5-30C296.6,311.2,308,324,308,339.3z"/>
	<path class="st17" d="M285.3,188.1H444l68,45.3v30.2H368.4v-30.2L285.3,188.1z"/>
	<path class="st16" d="M368.4,233.5H512v37.8H368.4V233.5z"/>
	<path class="st18" d="M300.4,263.7c0,8.4-6.8,15.2-15.1,15.2c-8.4,0-15.2-6.8-15.2-15.1c0-8.4,6.8-15.2,15.1-15.2c0,0,0,0,0.1,0
		C293.6,248.6,300.4,255.4,300.4,263.7z"/>
	<ellipse class="st12" cx="281.5" cy="263.7" rx="11.3" ry="14.6"/>
	<path class="st19" d="M314.6,410.1l-16,35.9l-8,17.9l-8,17.9l-4,9H54.3l-2.6-9L36.3,428h170.5l35.9-17.9H314.6z"/>
	<path class="st20" d="M298.6,446l-8,17.9h-244L41.5,446H298.6z"/>
	<path class="st21" d="M345.7,324.2h68v60.5h-68V324.2z"/>
	<path class="st22" d="M368.4,346.8h15.1V362h-15.1V346.8z"/>
	<path class="st23" d="M476.1,383.2H512v107.7H368.4V455h35.9v-35.9h35.9v-35.9H476.1z"/>
	<path class="st24" d="M282.7,481.9l-4,9H54.3l-2.6-9H282.7z"/>
	<path class="st25" d="M171.9,248.6H81.2l37.8-37.8L171.9,248.6z"/>
	<path class="st26" d="M368.4,263.7h68v60.5h-68V263.7z"/>
	<path class="st27" d="M391.1,286.4h15.1v15.1h-15.1V286.4z"/>
	<path class="st28" d="M406.2,324.2H512v60.5H406.2V324.2z"/>
	<path class="st22" d="M428.9,346.8h60.5V362h-60.5V346.8z"/>
	<path class="st29" d="M428.9,263.7H512v60.5h-83.1V263.7z"/>
	<path class="st27" d="M451.5,286.4H512v15.1h-60.5V286.4z"/>
</g>
<g id="Flat">
	<path class="st30" d="M484.6,54.4h-8.9v38.2l-17.8-17.8V54.4H449v191.5h8.9v-16L477,249l7.6,1.3V54.4z M457.9,158.7l17.8,17.8v23
		l-17.8-17.8V158.7z M457.9,146.1v-23l17.8,17.8v23L457.9,146.1z M475.7,105.2v23l-17.8-17.8v-23L475.7,105.2z M457.9,194.3
		l17.8,17.8v23l-17.8-17.8V194.3z"/>
	<g>
		<path class="st31" d="M453.4,0.9h8.9v31.2h-8.9V0.9z"/>
		<path class="st31" d="M471.3,9.8h8.9v17.8h-8.9V9.8z"/>
		<path class="st31" d="M288.6,14.3h8.9v22.3h-8.9V14.3z"/>
		<path class="st31" d="M293.1,129.6c-9.8,0-17.8-8-17.8-17.8c0-8.1,5.5-15.2,13.4-17.3V54.8h8.9v43.6c0,2.5-2,4.5-4.5,4.5
			c-4.9,0-8.9,4-8.9,8.9s4,8.9,8.9,8.9s8.9-4,8.9-8.9h8.9C310.9,121.6,302.9,129.5,293.1,129.6z"/>
		<path class="st31" d="M306.5,23.2h8.9v13.4h-8.9V23.2z"/>
	</g>
	<path class="st32" d="M426.7,245.9h80.2v17.8h-80.2V245.9z"/>
	<path class="st30" d="M480.2,27.7h31.2v26.7l-22.3,8.9h-8.9L480.2,27.7L480.2,27.7z"/>
	<path class="st30" d="M453.4,41v-8.9H275.3c-2.5,0-4.5,2-4.5,4.5v17.8c0,2.5,2,4.5,4.5,4.5h178.2V50H433l-8.9-8.9L453.4,41
		L453.4,41z M352.8,41h23l8.9,8.9h-23L352.8,41z M349.2,49.9h-23l-8.9-8.9h23L349.2,49.9z M279.7,41h24.9l8.9,8.9h-33.8V41z
		 M420.4,49.9h-23l-8.9-8.9h23L420.4,49.9z"/>
	<path class="st33" d="M288.6,14.3h8.9v8.9h-8.9V14.3z"/>
	<path class="st32" d="M444.5,23.2H489v44.5h-44.5V23.2z"/>
	<path class="st33" d="M453.4,0.9h8.9v8.9h-8.9V0.9z"/>
</g>
</svg>
