<svg height="512pt" viewBox="0 -23 512.00022 512" width="512pt" xmlns="http://www.w3.org/2000/svg"><path d="m477.03125 402.449219h-198.871094v-192.242188h188.328125c5.824219 0 10.542969 4.71875 10.542969 10.539063zm0 0" fill="#eab765"/><path d="m466.488281 210.207031h-31.144531c5.820312 0 10.539062 4.71875 10.539062 10.539063v181.707031h31.148438v-181.707031c0-5.820313-4.71875-10.539063-10.542969-10.539063zm0 0" fill="#d9ab5e"/><path d="m291.414062 402.449219h-205.1875v-227.675781h194.648438c5.820312 0 10.539062 4.71875 10.539062 10.539062zm0 0" fill="#eab765"/><path d="m280.875 174.773438h-31.234375c5.820313 0 10.539063 4.71875 10.539063 10.539062v217.136719h31.234374v-217.136719c0-5.820312-4.71875-10.539062-10.539062-10.539062zm0 0" fill="#d9ab5e"/><path d="m75.890625 50.984375v356.242187h27.589844v-356.242187c0-19.15625-13.625-35.824219-32.398438-39.632813l-54.539062-11.070312c-7.464844-1.523438-14.75 3.308594-16.265625 10.773438-1.515625 7.46875 3.308594 14.75 10.777344 16.261718l54.539062 11.070313c5.964844 1.214843 10.296875 6.511719 10.296875 12.597656zm0 0" fill="#7ca1b1"/><path d="m501.375 409.578125h-435.921875c-5.867187 0-10.625-4.757813-10.625-10.625v-11.539063c0-5.867187 4.757813-10.625 10.625-10.625h435.921875c5.867188 0 10.625 4.757813 10.625 10.625v11.539063c0 5.867187-4.757812 10.625-10.625 10.625zm0 0" fill="#ff4755"/><path d="m182.519531 421.695312c0 24.804688-20.105469 44.910157-44.90625 44.910157s-44.90625-20.105469-44.90625-44.910157c0-24.800781 20.105469-44.90625 44.90625-44.90625s44.90625 20.105469 44.90625 44.90625zm0 0" fill="#384949"/><path d="m154.953125 421.695312c0 9.578126-7.761719 17.339844-17.339844 17.339844s-17.339843-7.761718-17.339843-17.339844c0-9.574218 7.761718-17.339843 17.339843-17.339843s17.339844 7.765625 17.339844 17.339843zm0 0" fill="#deecf1"/><path d="m468.308594 421.695312c0 24.804688-20.105469 44.910157-44.90625 44.910157-24.800782 0-44.90625-20.105469-44.90625-44.910157 0-24.800781 20.105468-44.90625 44.90625-44.90625 24.800781 0 44.90625 20.105469 44.90625 44.90625zm0 0" fill="#384949"/><path d="m440.742188 421.695312c0 9.578126-7.761719 17.339844-17.339844 17.339844-9.574219 0-17.339844-7.761718-17.339844-17.339844 0-9.574218 7.765625-17.339843 17.339844-17.339843 9.578125 0 17.339844 7.765625 17.339844 17.339843zm0 0" fill="#deecf1"/><path d="m361.585938 266.996094h32.789062c3.140625 0 5.6875-2.546875 5.6875-5.6875v-51.101563h-44.164062v51.101563c0 3.140625 2.546874 5.6875 5.6875 5.6875zm0 0" fill="#ff9838"/><path d="m172.425781 230.851562h32.789063c3.140625 0 5.6875-2.546874 5.6875-5.691406v-50.386718h-44.164063v50.386718c0 3.144532 2.546875 5.691406 5.6875 5.691406zm0 0" fill="#ff9838"/><g fill="#fff3de"><path d="m169.164062 329.335938h-38.613281c-4.269531 0-7.726562-3.460938-7.726562-7.726563 0-4.269531 3.460937-7.726563 7.726562-7.726563h38.613281c4.269532 0 7.726563 3.457032 7.726563 7.726563 0 4.265625-3.457031 7.726563-7.726563 7.726563zm0 0"/><path d="m169.164062 361.082031h-38.613281c-4.269531 0-7.726562-3.457031-7.726562-7.722656 0-4.269531 3.460937-7.726563 7.726562-7.726563h38.613281c4.269532 0 7.726563 3.457032 7.726563 7.726563 0 4.265625-3.457031 7.722656-7.726563 7.722656zm0 0"/><path d="m358.214844 329.335938h-38.613282c-4.265624 0-7.726562-3.460938-7.726562-7.726563 0-4.269531 3.460938-7.726563 7.726562-7.726563h38.613282c4.269531 0 7.726562 3.457032 7.726562 7.726563 0 4.265625-3.457031 7.726563-7.726562 7.726563zm0 0"/><path d="m358.214844 361.082031h-38.613282c-4.265624 0-7.726562-3.457031-7.726562-7.722656 0-4.269531 3.460938-7.726563 7.726562-7.726563h38.613282c4.269531 0 7.726562 3.457032 7.726562 7.726563 0 4.265625-3.457031 7.722656-7.726562 7.722656zm0 0"/></g></svg>