<?xml version="1.0" encoding="utf-8"?>
<!-- Generator: Adobe Illustrator 24.0.0, SVG Export Plug-In . SVG Version: 6.00 Build 0)  -->
<svg version="1.1" id="Capa_1" xmlns="http://www.w3.org/2000/svg" xmlns:xlink="http://www.w3.org/1999/xlink" x="0px" y="0px"
	 viewBox="0 0 512 512" style="enable-background:new 0 0 512 512;" xml:space="preserve">
<style type="text/css">
	.st0{fill:#666666;}
	.st1{fill:#F74B68;}
	.st2{fill:#DD3A5E;}
	.st3{fill:#F2F2F2;}
	.st4{fill:#CCCCCC;}
	.st5{fill:#82BFB8;}
	.st6{fill:#A5E5DF;}
	.st7{fill:#428FCE;}
	.st8{fill:#3180B5;}
	.st9{fill:#FBB540;}
	.st10{fill:#DA922A;}
	.st11{fill:#A83B32;}
	.st12{fill:#EBEBEB;}
	.st13{fill:#99362E;}
	.st14{fill:#5B3726;}
	.st15{fill:#FBD699;}
	.st16{fill:#E08122;}
	.st17{fill:#FD9226;}
	.st18{fill:#E0E0E0;}
	.st19{fill:#D9D9D9;}
	.st20{fill:#EA9D2D;}
	.st21{fill:#6CBAE5;}
	.st22{fill:#4799CF;}
	.st23{fill:#CDCDCD;}
	.st24{fill:#8DC79D;}
	.st25{fill:#55785F;}
	.st26{fill:#744630;}
	.st27{fill:#C7463B;}
	.st28{fill:#428DC5;}
	.st29{fill:#85BC94;}
	.st30{fill:#81A9C9;}
	.st31{fill:#A6C8E8;}
	.st32{fill:#E6E6E6;}
	.st33{fill:#FFFFFF;}
	.st34{fill:#B2B1B4;}
	.st35{fill:#959494;}
	.st36{fill:#808080;}
	.st37{fill:#EB5849;}
</style>
<g id="flat">
	<g>
		<path class="st0" d="M46.2,76.8c-2.3,0-4.2-1.9-4.2-4.2V37.8c0-2.3,1.9-4.2,4.2-4.2c2.3,0,4.2,1.9,4.2,4.2v34.8
			C50.5,74.9,48.6,76.8,46.2,76.8z"/>
		<rect x="33" y="114.4" class="st1" width="26.6" height="268.8"/>
		<rect x="33" y="114.4" class="st2" width="13.3" height="268.8"/>
		<rect x="33" y="202.2" class="st3" width="26.6" height="85.1"/>
		<rect x="33" y="202.2" class="st4" width="13.3" height="85.1"/>
		<polygon class="st5" points="77.4,72.6 70,120.1 22.5,120.1 15,72.6 		"/>
		<polygon class="st6" points="77.4,72.6 70,120.1 37.3,120.1 36.1,72.6 		"/>
		<g>
			<path class="st7" d="M77.4,78.9H15c-3.5,0-6.3-2.8-6.3-6.3s2.8-6.3,6.3-6.3h62.4c3.5,0,6.3,2.8,6.3,6.3S80.9,78.9,77.4,78.9z"/>
			<path class="st7" d="M70,126.4H22.5c-3.5,0-6.3-2.8-6.3-6.3c0-3.5,2.8-6.3,6.3-6.3H70c3.5,0,6.3,2.8,6.3,6.3
				C76.3,123.5,73.5,126.4,70,126.4z"/>
		</g>
		<g>
			<path class="st8" d="M34.2,120.1c0-3.5,2.8-6.3,6.3-6.3h-18c-3.5,0-6.3,2.8-6.3,6.3c0,3.5,2.8,6.3,6.3,6.3h18
				C37,126.4,34.2,123.5,34.2,120.1z"/>
			<path class="st8" d="M26.7,72.6c0-3.5,2.8-6.3,6.3-6.3H15c-3.5,0-6.3,2.8-6.3,6.3s2.8,6.3,6.3,6.3h18
				C29.5,78.9,26.7,76.1,26.7,72.6z"/>
		</g>
	</g>
	<path class="st9" d="M171.9,392.2H81.2V248.6l90.7-7.6V392.2z"/>
	<path class="st10" d="M171.9,241h30.2v151.1h-30.2V241z"/>
	<path class="st11" d="M171.9,248.6h52.9l-45.3-37.8H119v15.1L171.9,248.6z"/>
	<g>
		<path class="st12" d="M103.9,271.3H119v15.1h-15.1V271.3z"/>
		<path class="st12" d="M134.1,271.3h15.1v15.1h-15.1V271.3z"/>
		<path class="st12" d="M134.1,301.5h15.1v15.1h-15.1V301.5z"/>
		<path class="st12" d="M103.9,301.5H119v15.1h-15.1V301.5z"/>
	</g>
	<path class="st13" d="M141.7,354.4v37.8h-30.2v-37.8c0-8.3,6.8-15.1,15.1-15.1S141.7,346.1,141.7,354.4z"/>
	<path class="st11" d="M134.1,354.4v37.8h-22.7v-37.8c0-6.9,4.7-12.9,11.3-14.6C129.5,341.5,134.1,347.5,134.1,354.4z"/>
	<path class="st14" d="M0.5,383.2H512v107.7H0.5V383.2z"/>
	<path class="st15" d="M368.4,384.6H202.2V233.5l83.1-45.3l83.1,45.3V384.6z"/>
	<path class="st16" d="M315.5,339.3v45.3h-60.5v-45.3c0-15.2,11.3-28.1,26.5-30c1.3-0.2,2.5-0.2,3.8-0.2
		C302,309.1,315.5,322.6,315.5,339.3C315.5,339.3,315.5,339.3,315.5,339.3z"/>
	<path class="st17" d="M308,339.3v45.3h-52.9v-45.3c0-15.2,11.3-28.1,26.5-30C296.6,311.2,308,324,308,339.3z"/>
	<path class="st17" d="M285.3,188.1H444l68,45.3v30.2H368.4v-30.2L285.3,188.1z"/>
	<path class="st16" d="M368.4,233.5H512v37.8H368.4V233.5z"/>
	<path class="st18" d="M300.4,263.7c0,8.4-6.8,15.2-15.1,15.2c-8.4,0-15.2-6.8-15.2-15.1c0-8.4,6.8-15.2,15.1-15.2c0,0,0,0,0.1,0
		C293.6,248.6,300.4,255.4,300.4,263.7z"/>
	<ellipse class="st12" cx="281.5" cy="263.7" rx="11.3" ry="14.6"/>
	<path class="st19" d="M314.6,410.1l-16,35.9l-8,17.9l-8,17.9l-4,9H54.3l-2.6-9l-15.4-53.8h170.5l35.9-17.9H314.6z"/>
	<path class="st20" d="M298.6,446l-8,17.9h-244L41.5,446H298.6z"/>
	<path class="st21" d="M54.3,356.3H162v71.8H54.3V356.3z"/>
	<path class="st22" d="M54.3,410.1H162v17.9H54.3V410.1z"/>
	<path class="st23" d="M81.2,383.2h17.9v17.9H81.2V383.2z"/>
	<path class="st23" d="M117.1,383.2h17.9v17.9h-17.9V383.2z"/>
	<path class="st24" d="M345.7,324.2h68v60.5h-68V324.2z"/>
	<path class="st25" d="M368.4,346.8h15.1V362h-15.1V346.8z"/>
	<path class="st26" d="M476.1,383.2H512v107.7H368.4V455h35.9v-35.9h35.9v-35.9H476.1z"/>
	<path class="st23" d="M282.7,481.9l-4,9H54.3l-2.6-9H282.7z"/>
	<path class="st27" d="M171.9,248.6H81.2l37.8-37.8L171.9,248.6z"/>
	<path class="st21" d="M368.4,263.7h68v60.5h-68V263.7z"/>
	<path class="st28" d="M391.1,286.4h15.1v15.1h-15.1V286.4z"/>
	<path class="st29" d="M406.2,324.2H512v60.5H406.2V324.2z"/>
	<path class="st25" d="M428.9,346.8h60.5V362h-60.5V346.8z"/>
	<path class="st22" d="M428.9,263.7H512v60.5h-83.1V263.7z"/>
	<path class="st28" d="M451.5,286.4H512v15.1h-60.5V286.4z"/>
</g>
<g>
	<path class="st30" d="M182.7,90.4l-26.4-7.1L137.5,70c-1.4-1-1.3-3.1,0.2-4l7-4.1c1.3-0.7,2.8-0.9,4.2-0.5l31.1,8.3"/>
	<g>
		<path class="st31" d="M165.7,81.5l-17.1-11.9c-0.9-0.6-2-0.6-2.9-0.1l-4.9,2.8l20,14.2l4.7-2.7C166.5,83.3,166.5,82.1,165.7,81.5z
			"/>
		<path class="st31" d="M240,57c2.2,4.1,0.7,9.2-3.4,11.5l-81.4,47c-7.4,4.3-16.9,2.1-21.7-5l-3.4-5.1l-9.9-14.7l6.6-3.8
			c1.4-0.8,3.2-0.9,4.7-0.1l10,5.1L208.8,53c4.5-2.6,10-2.9,14.8-0.8l4,1.8l0.6-0.4c2-1.2,4.4-1.4,6.5-0.9
			C236.9,53.4,238.8,54.8,240,57z"/>
	</g>
	<path class="st30" d="M233.8,63.2l-43.9,25.4L166.6,102l-10.5,6l-3.9,2.2c-7.4,4.3-16.9,2.1-21.7-5l-9.9-14.8l-0.4,0.2l13.3,19.8
		c4.8,7.1,14.3,9.3,21.7,5l3.9-2.2l10.5-6l23.2-13.4l43.9-25.4c4.1-2.3,5.5-7.5,3.1-11.6c-0.5-0.9-1.2-1.7-2-2.3
		C238.5,57.9,236.9,61.4,233.8,63.2z"/>
	<path class="st32" d="M227.6,54.1l-8.4,4.9c-2.9,1.7-6.6,0.7-8.3-2.2l-2.1-3.7c1.6-0.9,3.3-1.6,5.1-1.9c3.2-0.6,6.6-0.2,9.6,1.1
		L227.6,54.1z"/>
	<path class="st31" d="M195.8,82.8l-11,40.9c-0.4,1.4-1.3,2.6-2.6,3.3l-7,4.1c-1.5,0.9-3.4-0.1-3.6-1.8l-3.2-33.8"/>
	<g>
		<path class="st33" d="M152.1,99.3c-1.4,0.8-3.2-0.6-2.7-2.2c0.5-1.6,2.8-1.7,3.4-0.2C153.2,97.8,152.9,98.8,152.1,99.3z"/>
		<path class="st33" d="M194,73c-0.5-0.9-0.2-2,0.7-2.5l0,0c0.9-0.5,2-0.2,2.5,0.7l0,0c0.5,0.9,0.2,2-0.7,2.5l0,0
			C195.6,74.1,194.5,73.8,194,73z M187.6,76.6c-0.5-0.9-0.2-2,0.7-2.5l0,0c0.9-0.5,2-0.2,2.5,0.7l0,0c0.5,0.9,0.2,2-0.7,2.5l0,0
			C189.3,77.8,188.1,77.5,187.6,76.6z M181.3,80.3c-0.5-0.9-0.2-2,0.7-2.5l0,0c0.9-0.5,2-0.2,2.5,0.7l0,0c0.5,0.9,0.2,2-0.7,2.5l0,0
			C182.9,81.5,181.8,81.2,181.3,80.3z M174.9,84c-0.5-0.9-0.2-2,0.7-2.5l0,0c0.9-0.5,2-0.2,2.5,0.7l0,0c0.5,0.9,0.2,2-0.7,2.5l0,0
			C176.6,85.1,175.5,84.8,174.9,84z M168.6,87.6c-0.5-0.9-0.2-2,0.7-2.5l0,0c0.9-0.5,2-0.2,2.5,0.7l0,0c0.5,0.9,0.2,2-0.7,2.5l0,0
			C170.2,88.8,169.1,88.5,168.6,87.6z M162.3,91.3c-0.5-0.9-0.2-2,0.7-2.5l0,0c0.9-0.5,2-0.2,2.5,0.7l0,0c0.5,0.9,0.2,2-0.7,2.5l0,0
			C163.9,92.5,162.8,92.2,162.3,91.3z M155.9,94.9c-0.5-0.9-0.2-2,0.7-2.5l0,0c0.9-0.5,2-0.2,2.5,0.7l0,0c0.5,0.9,0.2,2-0.7,2.5l0,0
			C157.5,96.1,156.4,95.8,155.9,94.9z"/>
		<path class="st33" d="M202.8,70c-1.4,0.8-3.2-0.6-2.7-2.2c0.2-0.7,0.9-1.2,1.6-1.3c0.8,0,1.6,0.5,1.8,1.2
			C204,68.6,203.6,69.5,202.8,70z"/>
	</g>
	<g>
		<path class="st30" d="M175.8,99l1.7,20.7c0.1,1-0.4,2-1.3,2.6l-4.9,2.8l-2.3-24.4l4.7-2.7C174.6,97.4,175.7,98,175.8,99z"/>
		<path class="st30" d="M134.1,103.1l-4,2.3l-9.9-14.7l5.6-3.2l9.1,11.2C136.1,100.1,135.7,102.2,134.1,103.1z"/>
	</g>
</g>
<g id="Flat">
	<path class="st34" d="M484.6,54.4h-8.9v38.2l-17.8-17.8V54.4H449v191.5h8.9v-16l19.1,19.1l7.6,1.3V54.4z M457.9,158.7l17.8,17.8v23
		l-17.8-17.8V158.7z M457.9,146.1v-23l17.8,17.8v23L457.9,146.1z M475.7,105.2v23l-17.8-17.8v-23L475.7,105.2z M457.9,194.3
		l17.8,17.8v23l-17.8-17.8V194.3z"/>
	<g>
		<path class="st35" d="M453.4,0.9h8.9v31.2h-8.9V0.9z"/>
		<path class="st35" d="M471.3,9.8h8.9v17.8h-8.9V9.8z"/>
		<path class="st35" d="M288.6,14.3h8.9v22.3h-8.9V14.3z"/>
		<path class="st35" d="M293.1,129.6c-9.8,0-17.8-8-17.8-17.8c0-8.1,5.5-15.2,13.4-17.3V54.8h8.9v43.6c0,2.5-2,4.5-4.5,4.5
			c-4.9,0-8.9,4-8.9,8.9c0,4.9,4,8.9,8.9,8.9s8.9-4,8.9-8.9h8.9C310.9,121.6,302.9,129.5,293.1,129.6z"/>
		<path class="st35" d="M306.5,23.2h8.9v13.4h-8.9V23.2z"/>
	</g>
	<path class="st36" d="M426.7,245.9h80.2v17.8h-80.2V245.9z"/>
	<path class="st34" d="M480.2,27.7h31.2v26.7l-22.3,8.9h-8.9V27.7z"/>
	<path class="st34" d="M453.4,41v-8.9H275.3c-2.5,0-4.5,2-4.5,4.5v17.8c0,2.5,2,4.5,4.5,4.5h178.2v-8.9H433l-8.9-8.9H453.4z
		 M352.8,41h23l8.9,8.9h-23L352.8,41z M349.2,49.9h-23l-8.9-8.9h23L349.2,49.9z M279.7,41h24.9l8.9,8.9h-33.8V41z M420.4,49.9h-23
		l-8.9-8.9h23L420.4,49.9z"/>
	<path class="st37" d="M288.6,14.3h8.9v8.9h-8.9V14.3z"/>
	<path class="st36" d="M444.5,23.2h44.5v44.5h-44.5V23.2z"/>
	<path class="st37" d="M453.4,0.9h8.9v8.9h-8.9V0.9z"/>
</g>
</svg>
