<svg height="512" viewBox="0 0 512 512" width="512" xmlns="http://www.w3.org/2000/svg"><g id="Flat"><path d="m349.637 340-11.274-124.013h100.181l11.274 124.013z" fill="#5db9d2"/><path d="m152 440h336v-96a24 24 0 0 0 -24-24h-104v-88h104v-32l-144-16v144h-168z" fill="#0093b9"/><path d="m288 440a80 80 0 0 1 160 0z" fill="#067b98"/><circle cx="368" cy="440" fill="#4e4e4f" r="48"/><circle cx="368" cy="440" fill="#c9c9c8" r="16"/><path d="m120 120h200v208h-200z" fill="#eb5849"/><path d="m24 56h144v432h-144z" fill="#f8bc1e"/><path d="m72 200h48v48h-48z" fill="#f9da62"/><path d="m72 56h48v48h-48z" fill="#f9da62"/><path d="m168 224h-12a12 12 0 0 0 -12 12v20.305a63.7 63.7 0 0 1 -63.695 63.695h-36.305a12 12 0 0 0 -12 12v12h136z" fill="#f5a922"/><path d="m168 80h-12a12 12 0 0 0 -12 12v20.305a63.7 63.7 0 0 1 -63.695 63.695h-36.305a12 12 0 0 0 -12 12v12h136z" fill="#f5a922"/><path d="m128 304h16v16h-16z" fill="#f79726"/><path d="m72 344h48v48h-48z" fill="#f9da62"/><path d="m168 368h-12a12 12 0 0 0 -12 12v20.305a63.7 63.7 0 0 1 -63.695 63.695h-36.305a12 12 0 0 0 -12 12v12h136z" fill="#f5a922"/><path d="m128 448h16v16h-16z" fill="#f79726"/><path d="m128 160h16v16h-16z" fill="#f79726"/><path d="m240 328h16v112h-16z" fill="#067b98"/><path d="m456 320v40h32v-16a24 24 0 0 0 -24-24z" fill="#f8bc1e"/><path d="m360 320h16v40h-16z" fill="#067b98"/><g fill="#d4342f"><path d="m272 144h16v160h-16z"/><path d="m240 144h16v160h-16z"/><path d="m208 144h16v160h-16z"/></g><path d="m464 384h24v16h-24z" fill="#067b98"/></g></svg>