<svg height="512" viewBox="0 0 512 512" width="512" xmlns="http://www.w3.org/2000/svg"><g id="Flat"><path d="m309.31 109.28h-106.62l14.91-37.28 10.65-26.62h55.5l10.65 26.62z" fill="#e3e4e2"/><path d="m104 112h304v16h-304z" fill="#e3e4e2"/><path d="m344 152 40-8v-48h-256v48l40 8z" fill="#b2b1b4"/><path d="m168 128h176v120h-176z" fill="#e3e4e2"/><path d="m112 200h96v104h-96z" fill="#0093b9"/><path d="m136 224h16v40h-16z" fill="#0884a9"/><path d="m168 224h16v40h-16z" fill="#0884a9"/><path d="m208 200h96v104h-96z" fill="#85bb40"/><path d="m232 224h16v40h-16z" fill="#7b9e3e"/><path d="m264 224h16v40h-16z" fill="#7b9e3e"/><path d="m304 200h96v104h-96z" fill="#f8bc1e"/><path d="m328 224h16v40h-16z" fill="#f79726"/><path d="m360 224h16v40h-16z" fill="#f79726"/><path d="m96 288h160v112h-160z" fill="#f8bc1e"/><g fill="#f79726"><path d="m120 312h16v48h-16z"/><path d="m152 312h16v40h-16z"/><path d="m184 312h16v40h-16z"/><path d="m216 312h16v40h-16z"/></g><path d="m256 288h160v112h-160z" fill="#eb5849" transform="matrix(-1 0 0 -1 672 688)"/><path d="m376 312h16v48h-16z" fill="#d4342f"/><path d="m344 312h16v40h-16z" fill="#d4342f"/><path d="m312 312h16v40h-16z" fill="#d4342f"/><path d="m280 312h16v40h-16z" fill="#d4342f"/><path d="m440 392-16 64s-12 16.8-43.9 32h-248.2c-31.9-15.2-43.9-32-43.9-32l-16-64 184-24z" fill="#0093b9"/><path d="m430 432-6 24s-12 16.8-43.9 32h-248.2c-31.9-15.2-43.9-32-43.9-32l-6-24z" fill="#eb5849"/><path d="m280 400h16v16h-16z" fill="#0884a9"/><path d="m216 400h16v16h-16z" fill="#0884a9"/><path d="m256 368a8 8 0 0 1 8 8v56a0 0 0 0 1 0 0h-16a0 0 0 0 1 0 0v-56a8 8 0 0 1 8-8z" fill="#0884a9"/><path d="m248 432h16v48h-16z" fill="#e54b3d"/><path d="m191.759 152.018h32v16h-32z" fill="#b2b1b4"/><path d="m240 152h32v16h-32z" fill="#b2b1b4"/><path d="m288 152h32v16h-32z" fill="#b2b1b4"/><path d="m488 496h-464v-40c29 0 29 16 58 16s29-16 58-16 29 16 58 16 29-16 58-16 29 16 58 16 29-16 58-16 29 16 58 16 29-16 58-16z" fill="#0093b9"/><path d="m294.4 72h-76.8l10.65-26.62h55.5z" fill="#c9c9c8"/><path d="m200 24h112a0 0 0 0 1 0 0v16a16 16 0 0 1 -16 16h-80a16 16 0 0 1 -16-16v-16a0 0 0 0 1 0 0z" fill="#e3e4e2"/></g></svg>