<svg height="512" viewBox="0 0 512 512" width="512" xmlns="http://www.w3.org/2000/svg"><g id="Flat"><path d="m186.882 331.628 23.794 71.381-28.284 28.285-50.912-50.912-56.568-56.569-50.912-50.911 28.284-28.285 71.382 23.794z" fill="#57c3c1"/><path d="m357.754 244.617a24 24 0 0 1 33.946 33.941l-84.853 84.853-33.947-33.941z" fill="#0093b9"/><path d="m210.676 97.539a24 24 0 0 0 -33.941-33.939l-84.853 84.851 33.941 33.941z" fill="#0093b9"/><path d="m199.362 210.676-141.421-141.421 45.255-45.255 164.049 130.108 33.941 33.941 130.108 164.049-45.255 45.254-141.422-141.421z" fill="#57c3c1"/><path d="m63.6 369.068 22.625 22.632 45.255-11.314 264.661-232.9a62.58 62.58 0 0 0 20.859-40.077 62.584 62.584 0 0 0 -69.115-69.109 62.585 62.585 0 0 0 -40.072 20.857l-232.9 264.66z" fill="#0093b9"/><path d="m385.017 115.532a16.281 16.281 0 0 1 -25.3-2.8 54.892 54.892 0 0 0 -17.154-17.154 16.28 16.28 0 0 1 -2.8-25.3 16.291 16.291 0 0 1 16.5-4.013 52.921 52.921 0 0 1 32.769 32.77 16.292 16.292 0 0 1 -4.012 16.5z" fill="#57c3c1"/><rect fill="#57c3c1" height="16" rx="8" transform="matrix(.707 -.707 .707 .707 -193.289 186.642)" width="72" x="92.652" y="318.642"/><g fill="#0093b9"><path d="m80.569 91.882 47.865-47.865-25.238-20.017-45.255 45.255z"/><path d="m363.411 374.725 47.866-47.866 20.017 25.239-45.255 45.254z"/><path d="m159.765 408.666 39.597-39.598 11.314 33.941-28.284 28.285z"/><path d="m46.627 295.529 39.598-39.598-33.941-11.314-28.284 28.285z"/></g><path d="m336 200h144v288h-144z" fill="#f8bc1e"/><path d="m384 344h48v48h-48z" fill="#f9da62"/><path d="m384 200h48v48h-48z" fill="#f9da62"/><path d="m480 368h-12a12 12 0 0 0 -12 12v20.305a63.7 63.7 0 0 1 -63.695 63.695h-36.305a12 12 0 0 0 -12 12v12h136z" fill="#f5a922"/><path d="m480 224h-12a12 12 0 0 0 -12 12v20.305a63.7 63.7 0 0 1 -63.695 63.695h-36.305a12 12 0 0 0 -12 12v12h136z" fill="#f5a922"/><path d="m440 448h16v16h-16z" fill="#f79726"/><path d="m440 304h16v16h-16z" fill="#f79726"/></g></svg>