<svg height="512pt" viewBox="-72 0 512 512" width="512pt" xmlns="http://www.w3.org/2000/svg"><path d="m352.464844 512h-336.609375c-8.753907 0-15.855469-7.097656-15.855469-15.855469v-426.289062c0-8.757813 7.097656-15.859375 15.855469-15.859375h336.609375c8.757812 0 15.855468 7.101562 15.855468 15.859375v426.289062c0 8.757813-7.097656 15.855469-15.855468 15.855469zm0 0" fill="#ff4755"/><path d="m352.464844 53.996094h-30.90625c8.757812 0 15.859375 7.101562 15.859375 15.859375v442.144531h15.046875c8.753906 0 15.855468-7.097656 15.855468-15.855469v-426.289062c0-8.757813-7.097656-15.859375-15.855468-15.859375zm0 0" fill="#e61f2d"/><path d="m322.980469 88.414062h-277.640625c-5.363282 0-9.710938 4.347657-9.710938 9.710938v368.539062c0 5.359376 4.347656 9.707032 9.710938 9.707032h224.429687l62.917969-62.917969v-315.328125c0-5.363281-4.34375-9.710938-9.707031-9.710938zm0 0" fill="#deecf1"/><path d="m332.6875 413.453125-62.917969 62.917969v-52.050782c0-6 4.867188-10.867187 10.871094-10.867187zm0 0" fill="#8ebac5"/><path d="m262.546875 40.742188h-27.710937c-4.195313 0-7.875-2.890626-8.765626-6.988282-4.183593-19.300781-21.359374-33.753906-41.910156-33.753906-20.550781 0-37.726562 14.453125-41.914062 33.753906-.886719 4.097656-4.566406 6.988282-8.761719 6.988282h-27.710937c-4.96875 0-8.996094 4.027343-8.996094 8.996093v38.675781h174.761718v-38.675781c.003907-4.964843-4.023437-8.996093-8.992187-8.996093zm-78.386719 13.253906c-8.195312 0-14.839844-6.644532-14.839844-14.839844 0-8.191406 6.644532-14.835938 14.839844-14.835938 8.195313 0 14.839844 6.644532 14.839844 14.839844 0 8.195313-6.644531 14.835938-14.839844 14.835938zm0 0" fill="#537983"/><path d="m279.890625 281.65625c0 52.882812-42.871094 95.753906-95.753906 95.753906-52.886719 0-95.753907-42.871094-95.753907-95.753906s42.867188-95.753906 95.753907-95.753906c52.882812 0 95.753906 42.871094 95.753906 95.753906zm0 0" fill="#2dd2e3"/><path d="m184.136719 185.902344c-5.3125 0-10.519531.449218-15.59375 1.28125 45.433593 7.472656 80.097656 46.921875 80.097656 94.472656 0 47.554688-34.664063 87-80.097656 94.472656 5.074219.835938 10.28125 1.28125 15.59375 1.28125 52.882812 0 95.753906-42.871094 95.753906-95.753906s-42.871094-95.753906-95.753906-95.753906zm0 0" fill="#00bfd8"/><path d="m167.679688 326.828125c-2.132813 0-4.175782-.878906-5.636719-2.4375l-27.8125-29.660156c-2.917969-3.113281-2.761719-8 .351562-10.917969 3.109375-2.921875 8-2.761719 10.921875.347656l21.996094 23.460938 52.234375-59.28125c2.824219-3.199219 7.707031-3.511719 10.90625-.6875 3.203125 2.820312 3.507813 7.703125.6875 10.90625l-57.851563 65.652344c-1.441406 1.632812-3.503906 2.585937-5.679687 2.617187-.039063 0-.078125 0-.117187 0zm0 0" fill="#deecf1"/></svg>