<svg height="512" viewBox="0 0 512 512" width="512" xmlns="http://www.w3.org/2000/svg"><g id="Flat"><path d="m233.34375 212.4375-16-24a8.00019 8.00019 0 0 1 1.65869-10.68457l56-44.79981 9.99512 12.49415-50.27246 40.21773 11.93115 17.89746z" fill="#808080"/><path d="m488 307.47v180.53h-328v-32l39.44-152.14014a111.05226 111.05226 0 0 1 80.56-79.85986l24-16 24 16 56-40 40 8a136.19923 136.19923 0 0 1 64 115.47z" fill="#ff6f35"/><path d="m488 307.47v180.53h-120l72-184 42.36-35.3a135.71532 135.71532 0 0 1 5.64 38.77z" fill="#e05e1d"/><path d="m256 40a16 16 0 0 0 16 16h48v48l15.09129-15.09129a15.36807 15.36807 0 0 1 19.39156-1.92014 15.36808 15.36808 0 0 1 3.76979 22.00787l-14.25264 19.00356 40 24 15.11784-80.62846a40 40 0 0 0 -39.31484-47.37154h-87.803a16 16 0 0 0 -16 16z" fill="#f2e368"/><path d="m384 152v32l-56 40-24-16v-24h-40v-56h-32l40-72h48v48l15.09129-15.09129a15.36807 15.36807 0 0 1 19.39156-1.92014 15.36808 15.36808 0 0 1 3.76979 22.00787l-14.25264 19.00356z" fill="#ffc7cc"/><path d="m288 104h-8a8 8 0 0 1 0-16h8a8 8 0 0 1 0 16z" fill="#808080"/><path d="m304 206.628v-22.628l24-24 11.313 11.314z" fill="#fe99a0"/><path d="m304 208-24 16 24 32 24-32z" fill="#ff8856"/><path d="m384 184-56 40 16 32 80-64z" fill="#ff8856"/><path d="m416 296-16 112h-56v48h99.16525a16 16 0 0 0 15.619-12.52911l29.21575-131.47089v-4.52823a136.16975 136.16975 0 0 0 -63.99994-115.47177h-.00006z" fill="#ff6f35"/><path d="m304 256v24h32l8-24-16-32z" fill="#d9501a"/><path d="m342.74 408h-3.51a100.78806 100.78806 0 0 0 -50.11 13.40991l1.99-18.98 12.89-122.42991h32l5.89 112z" fill="#e05e1d"/><path d="m402.28552 392 13.71448-96-15.83887-2.26367-14.03808 98.26367h-46.89795a116.844 116.844 0 0 0 -72.72656 25.51074 49.04987 49.04987 0 0 0 -18.49854 38.48926h16a33.12675 33.12675 0 0 1 12.49365-25.99512 100.7829 100.7829 0 0 1 62.73145-22.00488h84.7749v-16z" fill="#e05e1d"/><path d="m342.74 408h-3.51a100.78806 100.78806 0 0 0 -50.11 13.40991l1.99-18.98a116.85091 116.85091 0 0 1 48.12-10.42991h2.66z" fill="#d9501a"/><path d="m344 408h-4.775a100.41863 100.41863 0 0 0 -62.731 22.00486 33.29 33.29 0 0 0 -12.494 25.99514h80z" fill="#ffc7cc"/><path d="m322.85 110.8-10.85-86.8h56l-11.165 89.323z" fill="#808080"/><circle cx="340" cy="108" fill="#4d4d4d" r="28"/><path d="m249.31481 456h-180.19795a16 16 0 0 1 -15.68929-12.86214l-25.6-128a16 16 0 0 1 15.68929-19.13786h180.48314l30.68893 153.44463a5.48055 5.48055 0 0 1 -5.37412 6.55537z" fill="#e6e6e6"/><path d="m256 488h-184a16 16 0 0 1 -16-16 16 16 0 0 1 16-16h184z" fill="#ccc"/><rect fill="#b3b3b3" height="32" rx="16" width="200" x="240" y="456"/><path d="m264.80353 437.2338-25.72429-128.62144a15.68928 15.68928 0 0 0 -15.3846-12.61236 15.68928 15.68928 0 0 0 -15.38464 18.7662l25.7243 128.62144a15.68928 15.68928 0 0 0 15.3846 12.61236 15.68928 15.68928 0 0 0 15.38463-18.7662z" fill="#ccc"/><circle cx="120" cy="376" fill="#f7f7f7" r="24"/></g></svg>