<?xml version="1.0" encoding="utf-8"?>
<!-- Generator: Adobe Illustrator 24.0.0, SVG Export Plug-In . SVG Version: 6.00 Build 0)  -->
<svg version="1.1" id="Capa_1" xmlns="http://www.w3.org/2000/svg" xmlns:xlink="http://www.w3.org/1999/xlink" x="0px" y="0px"
	 viewBox="0 0 512 512" style="enable-background:new 0 0 512 512;" xml:space="preserve">
<style type="text/css">
	.st0{fill:#2C2F38;}
	.st1{fill:#393F4A;}
	.st2{fill:#7F8C8D;}
	.st3{fill:#C03A2B;}
	.st4{fill:#E64C3C;}
	.st5{fill:#3B97D3;}
	.st6{fill:#2980BA;}
	.st7{fill:#BDC3C7;}
	.st8{fill:#E4C05C;}
	.st9{fill:#067B98;}
	.st10{fill:#5DB9D2;}
	.st11{fill:#0093B9;}
	.st12{fill:#4E4E4F;}
	.st13{fill:#C9C9C8;}
	.st14{fill:#EB5849;}
	.st15{fill:#F8BC1E;}
	.st16{fill:#D4342F;}
	.st17{fill:#FFFFFF;}
	.st18{fill:#57C3C1;}
	.st19{fill:#E3E4E2;}
	.st20{fill:#B2B1B4;}
	.st21{fill:#0884A9;}
	.st22{fill:#85BB40;}
	.st23{fill:#7B9E3E;}
	.st24{fill:#F79726;}
	.st25{fill:#E54B3D;}
</style>
<g>
	<g id="_x30_80---Trainset">
		<path id="Shape" class="st0" d="M478,296.1l-0.5,1.8l-8.5,33.2l-10.5,3.3l-11.1-3.3l-8.5-33.2l-0.5-1.8c-0.4-2.9,0.4-5.8,2.3-8
			c1.9-2.2,4.7-3.5,7.6-3.5h19.9c2.9,0,5.7,1.3,7.6,3.5C477.6,290.3,478.4,293.2,478,296.1z"/>
		<path id="Shape_1_" class="st1" d="M477.5,297.9l-8.5,33.2h-21.6l-8.5-33.2H477.5z"/>
		<path id="Shape_2_" class="st2" d="M498,390.9l-31.6,5c-4,0-7.8,1.6-10.6,4.4c-2.8,2.8-4.4,6.6-4.4,10.6c0-4-1.6-7.8-4.4-10.6
			c-2.8-2.8-6.6-4.4-10.6-4.4c-8.3,0-10.2,1.7-10.2,10c0,1.8-4.5,3.4-3.9,5H409c1.7-2.9-0.6-6.3-0.6-10c0-11-5.6-15-16.6-15
			c-8.4,0-16,5.3-18.8,13.3h-2.3c-2.8-8-10.3-13.3-18.8-13.3c-7.4,0-13.8,2.4-17.2,8.3l-19.3-3.3c0.3-4.3,2.9-8,6.6-10v-66.5
			c-3.7,0-6.6-3-6.6-6.6c0-1.8,0.7-3.5,2-4.7c1.2-1.3,2.9-2,4.7-2H395c3.7,0,6.6,3,6.6,6.6c0,3.7-3,6.6-6.6,6.6v26.6h10
			c0-3.7,3-6.6,6.6-6.6h6.6c3.7,0,6.6,3,6.6,6.6h10c0,0,0-8.5,12.5-10H469c12.5,1.5,12.5,10,12.5,10s10,6.6,10,13.3V381
			C495.2,382.9,497.7,386.7,498,390.9z"/>
		<path id="Shape_3_" class="st3" d="M411.6,400.9c0,3.5-0.9,6.9-2.7,10c-3.9,6.7-11.3,10.6-19.1,9.9s-14.4-5.9-16.9-13.2h18.8
			c3.7,0,6.6-3,6.6-6.6c0-3.7-3-6.6-6.6-6.6h-18.8c3.3-9.1,12.6-14.6,22.1-12.9S411.6,391.2,411.6,400.9z"/>
		<path id="Shape_4_" class="st3" d="M351.8,407.5h18.8c-3,8.6-11.4,14-20.5,13.2s-16.4-7.6-17.9-16.5c-0.2-1.1-0.3-2.2-0.3-3.3
			c0-3.5,0.9-6.9,2.7-10c3.9-6.7,11.3-10.6,19.1-9.9c7.7,0.7,14.4,5.9,16.9,13.2h-18.8c-3.7,0-6.6,3-6.6,6.6
			C345.2,404.6,348.2,407.5,351.8,407.5z"/>
		<path id="Shape_5_" class="st3" d="M436.6,390.9c-4,0-7.8,1.6-10.6,4.4c-2.8,2.8-4.4,6.6-4.4,10.6c0,1.7,0.3,3.4,0.9,5
			c2.5,7.2,10,11.3,17.5,9.6s12.4-8.7,11.5-16.3C450.6,396.6,444.2,390.9,436.6,390.9L436.6,390.9z M436.6,410.9c-2.8,0-5-2.2-5-5
			s2.2-5,5-5c2.8,0,5,2.2,5,5S439.3,410.9,436.6,410.9z"/>
		<path id="Rectangle-path" class="st4" d="M321.9,354.4h169.5v13.3H321.9V354.4z"/>
		<path id="Rectangle-path_1_" class="st3" d="M381.7,314.5H395v39.9h-13.3V314.5z"/>
		<path id="Rectangle-path_2_" class="st3" d="M321.9,314.5h13.3v39.9h-13.3V314.5z"/>
		<path id="Shape_6_" class="st1" d="M498,390.9h-31.6c-4,0-7.8,1.6-10.6,4.4c-2.8,2.8-4.4,6.6-4.4,10.6c0-8.3-6.7-15-15-15
			c-8.3,0-15,6.7-15,15c0,1.7,0.3,3.4,0.9,5H409c1.8-3,2.7-6.5,2.7-10c0-9.7-7-17.9-16.6-19.6s-18.9,3.8-22.1,12.9h-2.3
			c-2.6-7.3-9.2-12.5-16.9-13.2c-7.7-0.7-15.2,3.1-19.1,9.9h-19.3c0.3-4.3,2.9-8,6.6-10v-13.3h169.5V381
			C495.2,382.9,497.7,386.7,498,390.9L498,390.9z"/>
		<path id="Shape_7_" class="st3" d="M466.5,390.9c-7.6,0-14,5.7-14.9,13.3c-0.9,7.6,4.1,14.6,11.5,16.3c7.4,1.7,14.9-2.4,17.5-9.6
			c0.6-1.6,0.9-3.3,0.9-5c0-4-1.6-7.8-4.4-10.6C474.2,392.5,470.4,390.9,466.5,390.9L466.5,390.9z M466.5,410.9c-2.8,0-5-2.2-5-5
			s2.2-5,5-5s5,2.2,5,5S469.2,410.9,466.5,410.9z"/>
		<path id="Shape_8_" class="st4" d="M505.1,410.9h-24.6c0.6-1.6,0.9-3.3,0.9-5c0-4-1.6-7.8-4.4-10.6c-2.8-2.8-6.6-4.4-10.6-4.4H498
			l9.8,14.8c0.7,1,0.8,2.3,0.2,3.4C507.5,410.2,506.3,410.9,505.1,410.9z"/>
		<path id="Shape_9_" class="st4" d="M331.9,400.9c0,1.1,0.1,2.2,0.3,3.3h-10.3c-3.7,0-6.6-3-6.6-6.6v-6.6h19.3
			C332.8,393.9,331.9,397.4,331.9,400.9z"/>
		<path id="Rectangle-path_3_" class="st5" d="M335.2,314.5h26.6v39.9h-26.6V314.5z"/>
		<path id="Rectangle-path_4_" class="st6" d="M361.8,314.5h19.9v39.9h-19.9V314.5z"/>
		<circle id="Oval" class="st7" cx="436.6" cy="405.9" r="5"/>
		<circle id="Oval_1_" class="st7" cx="466.5" cy="405.9" r="5"/>
		<path id="Shape_10_" class="st1" d="M491.4,430.8H331.9c-1.8,0-3.3-1.5-3.3-3.3c0-1.8,1.5-3.3,3.3-3.3h159.5
			c1.8,0,3.3,1.5,3.3,3.3C494.7,429.3,493.2,430.8,491.4,430.8z"/>
		<path id="Shape_11_" class="st1" d="M318.6,430.8h-3.3c-1.8,0-3.3-1.5-3.3-3.3c0-1.8,1.5-3.3,3.3-3.3h3.3c1.8,0,3.3,1.5,3.3,3.3
			C321.9,429.3,320.4,430.8,318.6,430.8z"/>
		<path id="Shape_12_" class="st1" d="M508,430.8h-3.3c-1.8,0-3.3-1.5-3.3-3.3c0-1.8,1.5-3.3,3.3-3.3h3.3c1.8,0,3.3,1.5,3.3,3.3
			C511.3,429.3,509.8,430.8,508,430.8z"/>
		<g>
			<path id="Shape_13_" class="st0" d="M391.7,424.1c-9.9,0-18.7-6.2-21.9-15.5c-0.6-1.7,0.4-3.6,2.1-4.2s3.6,0.3,4.2,2
				c2.2,6.1,7.7,10.4,14.1,11c6.4,0.6,12.7-2.6,15.9-8.2c1.5-2.5,2.3-5.4,2.2-8.3c0-8.1-5.8-14.9-13.8-16.3s-15.7,3.2-18.5,10.8
				c-0.6,1.7-2.5,2.6-4.2,2c-1.7-0.6-2.6-2.4-2.1-4.2c3.8-10.7,14.7-17,25.8-15.1c11.1,1.9,19.3,11.6,19.3,22.9
				c0,4.1-1.1,8.1-3.2,11.7C407.7,419.7,400,424.1,391.7,424.1L391.7,424.1z"/>
			<path id="Shape_14_" class="st0" d="M351.8,424.1c-11.4,0.1-21.1-8.2-22.9-19.4c-0.2-1.3-0.3-2.6-0.3-3.9c0-4.1,1.1-8.1,3.2-11.7
				c4.5-7.9,13.2-12.4,22.3-11.5c9,0.8,16.8,6.9,19.8,15.4c0.6,1.7-0.4,3.6-2.1,4.2c-1.7,0.6-3.6-0.3-4.2-2
				c-2.2-6.1-7.7-10.4-14.1-11s-12.7,2.6-15.9,8.2c-1.5,2.5-2.3,5.4-2.3,8.3c0,0.9,0.1,1.8,0.2,2.7c1.2,7.5,7.4,13.2,14.9,13.8
				c7.5,0.7,14.6-3.9,17.1-11c0.6-1.7,2.5-2.6,4.2-2s2.6,2.4,2.1,4.2C370.5,417.9,361.7,424.2,351.8,424.1z"/>
			<path id="Shape_15_" class="st0" d="M436.6,424.1c-10.1,0-18.3-8.2-18.3-18.3s8.2-18.3,18.3-18.3c10.1,0,18.3,8.2,18.3,18.3
				C454.8,416,446.7,424.1,436.6,424.1z M436.6,394.2c-6.4,0-11.6,5.2-11.6,11.6s5.2,11.6,11.6,11.6c6.4,0,11.6-5.2,11.6-11.6
				S443,394.2,436.6,394.2z"/>
			<path id="Shape_16_" class="st0" d="M466.5,424.1c-10.1,0-18.3-8.2-18.3-18.3s8.2-18.3,18.3-18.3s18.3,8.2,18.3,18.3
				C484.7,416,476.6,424.1,466.5,424.1z M466.5,394.2c-6.4,0-11.6,5.2-11.6,11.6s5.2,11.6,11.6,11.6s11.6-5.2,11.6-11.6
				S472.9,394.2,466.5,394.2z"/>
		</g>
		<path id="Shape_17_" class="st8" d="M398.4,400.9c0,3.7-3,6.6-6.6,6.6h-39.9c-3.7,0-6.6-3-6.6-6.6c0-3.7,3-6.6,6.6-6.6h39.9
			C395.4,394.3,398.3,397.2,398.4,400.9z"/>
	</g>
	<g>
		<g id="Flat_4_">
			<path class="st9" d="M98.3,413.8H92v-44.1h6.3V413.8z"/>
			<path class="st10" d="M15.7,374.4l4.4-48.8h39.4l-4.4,48.8H15.7z"/>
			<path class="st11" d="M132.9,369.7H66.8V313l-56.7,6.3v12.6h40.9v34.6H10.1c-5.2,0-9.4,4.2-9.4,9.4v37.8h132.3V369.7z"/>
			<path class="st9" d="M16.4,413.8c0-17.4,14.1-31.5,31.5-31.5s31.5,14.1,31.5,31.5H16.4z"/>
			<circle class="st12" cx="47.9" cy="413.9" r="18.9"/>
			<circle class="st13" cx="47.9" cy="413.9" r="6.3"/>
			<path class="st14" d="M205.4,413.7H92l-0.1-31.2l-25.1-0.2v-94.5h138.6V413.7z"/>
			<path class="st15" d="M10.1,366.5c-5.2,0-9.4,4.2-9.4,9.4v6.3h12.6v-15.7H10.1z"/>
			<path class="st9" d="M51.1,382.3h-6.3v-15.7h6.3V382.3z"/>
			<g>
				<path class="st16" d="M85.7,360.2h-6.3v-63h6.3V360.2z"/>
				<path class="st16" d="M98.3,360.2H92v-63h6.3V360.2z"/>
				<path class="st16" d="M110.9,360.2h-6.3v-63h6.3V360.2z"/>
			</g>
			<path class="st9" d="M10.1,398H0.7v-6.3h9.4V398z"/>
			<path class="st14" d="M102.1,413.7"/>
		</g>
	</g>
	<path class="st17" d="M172.4,436.6c-1.1,0-2.2-0.2-3.2-0.7c-19.3-9.2-27-19.5-27.8-20.6c-0.5-0.8-0.9-1.6-1.2-2.5l-9.1-36.5
		c-0.5-2-0.1-4.2,1.1-5.9c1.2-1.7,3.1-2.9,5.1-3.2l7.3-0.9v-51c0-4.1,3.3-7.4,7.4-7.4h1.8v-42.8c0-4.1,3.3-7.4,7.4-7.4h24.5v-14
		l-16.9-3.4c-3.4-0.7-5.9-3.7-5.9-7.2v-1.8h-6.3c-4.1,0-7.4-3.3-7.4-7.4V215c0-4.1,3.3-7.4,7.4-7.4h6.3v-1.8c0-4.1,3.3-7.4,7.4-7.4
		h40.5l3-7.4c0.1-0.5,0.2-1.1,0.4-1.6l0.1-0.2c-6-2.4-10.3-8.4-10.3-15.3v-9.1c0-4.1,3.3-7.4,7.4-7.4H275c4.1,0,7.4,3.3,7.4,7.4v9.1
		c0,6.9-4.3,12.8-10.3,15.3l0.1,0.2c0.2,0.5,0.4,1.1,0.4,1.6l3,7.4h40.5c4.1,0,7.4,3.3,7.4,7.4v1.8h6.3c4.1,0,7.4,3.3,7.4,7.4v9.1
		c0,4.1-3.3,7.4-7.4,7.4h-6.3v1.8c0,3.5-2.5,6.5-5.9,7.2l-16.9,3.4v14h24.5c4.1,0,7.4,3.3,7.4,7.4v42.8h1.8c4.1,0,7.4,3.3,7.4,7.4
		v51l7.3,0.9c2.1,0.3,4,1.4,5.1,3.2c1.2,1.7,1.6,3.9,1.1,5.9l-9.1,36.5c-0.2,0.9-0.6,1.7-1.2,2.5c-0.8,1.1-8.5,11.4-27.8,20.6
		c-1,0.5-2.1,0.7-3.2,0.7H172.4z"/>
	<g>
		<g id="Flat_3_">
			<path class="st18" d="M363.4,142.4l8.1,24.2l-9.6,9.6l-17.2-17.2l-19.1-19.1l-17.2-17.2l9.6-9.6L342,121L363.4,142.4z"/>
			<path class="st11" d="M421.2,113c3.2-3.2,8.3-3.2,11.5,0c3.2,3.2,3.2,8.3,0,11.5L404,153.2l-11.5-11.5L421.2,113z"/>
			<path class="st11" d="M371.4,63.2c3.1-3.2,3.1-8.3-0.1-11.5c-3.2-3.1-8.2-3.1-11.4,0l-28.7,28.7l11.5,11.5L371.4,63.2z"/>
			<path class="st18" d="M367.6,101.5l-47.9-47.9L335,38.3l55.5,44L402,93.8l44,55.5l-15.3,15.3l-47.9-47.9L367.6,101.5z"/>
			<path class="st11" d="M321.6,155.1l7.7,7.7l15.3-3.8l89.6-78.8c4-3.5,6.5-8.3,7.1-13.6c1.3-11.6-7.1-22.1-18.7-23.4
				c-1.6-0.2-3.1-0.2-4.7,0c-5.2,0.6-10.1,3.1-13.6,7.1l-78.8,89.6L321.6,155.1z"/>
			<path class="st18" d="M430.4,69.3c-2.1,2.2-5.6,2.2-7.8,0c-0.3-0.3-0.6-0.6-0.8-1c-1.5-2.3-3.5-4.3-5.8-5.8
				c-2.6-1.6-3.3-5-1.7-7.6c0.2-0.3,0.5-0.7,0.8-1c1.5-1.5,3.6-2,5.6-1.4c5.2,1.8,9.3,5.9,11.1,11.1
				C432.4,65.7,431.9,67.8,430.4,69.3L430.4,69.3z"/>
			<path class="st18" d="M335,145.5l13.4-13.4c1.1-1.1,2.8-1.1,3.8,0l0,0c1.1,1.1,1.1,2.8,0,3.8l-13.4,13.4c-1.1,1.1-2.8,1.1-3.8,0
				l0,0C334,148.3,334,146.6,335,145.5z"/>
			<g>
				<path class="st11" d="M327.4,61.3l16.2-16.2l-8.5-6.8l-15.3,15.3L327.4,61.3z"/>
				<path class="st11" d="M423.1,157l16.2-16.2l6.8,8.5l-15.3,15.3L423.1,157z"/>
				<path class="st11" d="M354.2,168.5l13.4-13.4l3.8,11.5l-9.6,9.6L354.2,168.5z"/>
				<path class="st11" d="M315.9,130.2l13.4-13.4l-11.5-3.8l-9.6,9.6L315.9,130.2z"/>
			</g>
		</g>
	</g>
	<g>
		<g id="Flat_1_">
			<path class="st19" d="M274.6,212.6h-60.9l8.5-21.3l6.1-15.2H260l6.1,15.2L274.6,212.6z"/>
			<path class="st19" d="M157.5,214.3h173.2v9.1H157.5V214.3z"/>
			<path class="st20" d="M294.3,237.1l22.8-4.6v-27.4H171.2v27.4l22.8,4.6H294.3z"/>
			<path class="st19" d="M194,223.5h100.3v68.4H194V223.5z"/>
			<path class="st11" d="M162.1,264.5h54.7v59.3h-54.7V264.5z"/>
			<path class="st21" d="M175.8,278.2h9.1V301h-9.1V278.2z"/>
			<path class="st21" d="M194,278.2h9.1V301H194V278.2z"/>
			<path class="st22" d="M216.8,264.5h54.7v59.3h-54.7V264.5z"/>
			<path class="st23" d="M230.5,278.2h9.1V301h-9.1V278.2z"/>
			<path class="st23" d="M248.7,278.2h9.1V301h-9.1V278.2z"/>
			<path class="st15" d="M271.5,264.5h54.7v59.3h-54.7V264.5z"/>
			<path class="st24" d="M285.2,278.2h9.1V301h-9.1V278.2z"/>
			<path class="st24" d="M303.4,278.2h9.1V301h-9.1V278.2z"/>
			<path class="st15" d="M153,314.6h91.2v63.8H153V314.6z"/>
			<g>
				<path class="st24" d="M166.6,328.3h9.1v27.4h-9.1V328.3z"/>
				<path class="st24" d="M184.9,328.3h9.1v22.8h-9.1V328.3z"/>
				<path class="st24" d="M203.1,328.3h9.1v22.8h-9.1V328.3z"/>
				<path class="st24" d="M221.3,328.3h9.1v22.8h-9.1V328.3z"/>
			</g>
			<path class="st14" d="M335.3,378.5h-91.2v-63.8h91.2V378.5z"/>
			<path class="st16" d="M312.5,328.3h9.1v27.4h-9.1V328.3z"/>
			<path class="st16" d="M294.3,328.3h9.1v22.8h-9.1V328.3z"/>
			<path class="st16" d="M276.1,328.3h9.1v22.8h-9.1V328.3z"/>
			<path class="st16" d="M257.8,328.3h9.1v22.8h-9.1V328.3z"/>
			<path class="st11" d="M349,373.9l-9.1,36.5c0,0-6.8,9.6-25,18.2H173.4c-18.2-8.7-25-18.2-25-18.2l-9.1-36.5l104.9-13.7L349,373.9
				z"/>
			<path class="st14" d="M343.3,396.7l-3.4,13.7c0,0-6.8,9.6-25,18.2H173.4c-18.2-8.7-25-18.2-25-18.2l-3.4-13.7H343.3z"/>
			<path class="st21" d="M257.8,378.5h9.1v9.1h-9.1V378.5z"/>
			<path class="st21" d="M221.3,378.5h9.1v9.1h-9.1V378.5z"/>
			<path class="st21" d="M244.1,360.2c2.5,0,4.6,2,4.6,4.6v31.9l0,0h-9.1l0,0v-31.9C239.6,362.3,241.6,360.2,244.1,360.2z"/>
			<path class="st25" d="M239.6,396.7h9.1v27.4h-9.1V396.7z"/>
			<path class="st20" d="M207.7,237.1h18.2v9.1h-18.2V237.1z"/>
			<path class="st20" d="M235,237.1h18.2v9.1H235V237.1z"/>
			<path class="st20" d="M262.4,237.1h18.2v9.1h-18.2V237.1z"/>
			<path class="st13" d="M266.3,191.5h-44.4l6.2-15.4h32.1L266.3,191.5z"/>
			<path class="st19" d="M212.2,164.2h63.8l0,0v9.1c0,5-4.1,9.1-9.1,9.1h-45.6c-5,0-9.1-4.1-9.1-9.1V164.2L212.2,164.2z"/>
		</g>
	</g>
</g>
</svg>
